<svg width="650" height="455" viewBox="0 0 650 455" fill="none" xmlns="http://www.w3.org/2000/svg">
<path d="M447.751 441.326C445.777 443.83 447.561 447.507 450.749 447.507H632.274C636.497 447.507 639.312 446.803 640.719 445.396C642.596 443.519 643.534 440.704 643.534 436.95C643.534 404.576 645.646 373.609 649.869 344.05C649.869 343.111 649.165 342.407 647.757 341.938C646.819 341.469 645.646 341.234 644.238 341.234C642.361 341.234 641.423 341.704 641.423 342.642C636.262 370.794 626.174 392.846 611.16 408.798C596.146 424.751 577.378 432.727 554.857 432.727H487.099C478.645 432.727 472.256 432.192 467.25 430.291C462.974 428.667 457.571 428.863 454.74 432.455L447.751 441.326Z" fill="black"/>
<path d="M467.264 24.4002C462.966 25.7909 457.577 25.6016 454.717 22.1052L447.981 13.8724C445.941 11.3795 447.715 7.63672 450.936 7.63672H627.945C632.168 7.63672 634.279 9.74808 634.279 13.9708L635.687 100.537C635.687 101.945 634.514 102.883 632.168 103.352C629.822 103.352 628.414 102.649 627.945 101.241C626.538 76.3738 619.031 57.1368 605.424 43.5301C591.817 29.4543 573.753 22.4163 551.232 22.4163H489.211C479.942 22.4163 472.739 22.6289 467.264 24.4002Z" fill="black"/>
<path d="M222.585 455C179.051 455 140.198 444.936 106.026 424.807C72.3225 404.21 46.1085 376.592 27.3843 341.952C9.12809 306.844 0 268.693 0 227.5C0 179.285 12.1708 138.092 36.5123 103.92C60.8539 69.2798 91.983 43.2999 129.9 25.9799C168.284 8.65998 207.371 0 247.16 0C291.631 0 330.718 10.5324 364.421 31.5972C398.125 52.1939 423.871 79.5782 441.659 113.75C459.915 147.922 469.043 184.2 469.043 222.585C469.043 265.183 457.809 304.27 435.339 339.846C412.87 375.422 382.677 403.508 344.761 424.105C307.312 444.702 266.587 455 222.585 455ZM247.16 440.255C278.992 440.255 307.546 432.531 332.824 417.083C358.57 401.636 378.699 378.933 393.21 348.974C408.189 319.015 415.679 283.439 415.679 242.245C415.679 198.243 407.487 159.156 391.103 124.985C374.72 90.8128 351.548 64.1307 321.589 44.9383C292.099 25.7459 257.459 16.1497 217.67 16.1497C166.178 16.1497 125.921 32.7675 96.8981 66.0031C67.8755 99.2387 53.3642 144.879 53.3642 202.924C53.3642 246.926 61.5561 287.184 77.9398 323.696C94.3235 359.74 117.261 388.295 146.752 409.36C176.242 429.956 209.712 440.255 247.16 440.255Z" fill="black"/>
<path d="M568.872 165.317C568.872 166.366 566.963 195.289 566.963 224.308C566.963 251.545 568.872 278.866 568.872 283.298C568.872 286.35 566.182 286.35 563.145 286.35C560.108 286.35 556.839 286.35 556.839 283.298C556.839 248.718 546.716 239.564 546.716 239.564C546.716 239.564 537.605 229.393 503.185 229.393C502.942 229.393 445.449 229.393 445.243 229.39C442.879 229.36 442.879 228.986 442.879 224.308C442.879 219.629 442.879 219.255 445.243 219.225C445.449 219.222 502.942 219.222 503.185 219.222C537.605 219.222 546.716 209.051 546.716 209.051C546.716 209.051 556.839 199.898 556.839 165.317C556.839 162.266 560.108 162.266 563.145 162.266C566.182 162.266 568.872 162.266 568.872 165.317Z" fill="black"/>
<rect x="302.426" y="226.09" width="6.0086" height="4.06833" fill="black"/>
<path d="M290.41 212.869L304.43 227.108V228.125H244.344C244.344 225.074 244.344 223.04 247.348 223.04C281.397 223.04 290.41 212.869 290.41 212.869Z" fill="black"/>
<path d="M320.454 243.379L306.433 229.14V228.123H366.52C366.52 231.174 366.52 233.208 363.515 233.208C329.466 233.208 320.454 243.379 320.454 243.379Z" fill="black"/>
<path d="M290.41 243.379L304.43 229.14V228.123H244.344C244.344 231.174 244.344 233.208 247.348 233.208C281.397 233.208 290.41 243.379 290.41 243.379Z" fill="black"/>
<path d="M320.454 212.869L306.433 227.108V228.125H366.52C366.52 225.074 366.52 223.04 363.515 223.04C329.466 223.04 320.454 212.869 320.454 212.869Z" fill="black"/>
<path d="M290.41 243.38L304.43 229.141H305.432V290.166C302.427 290.166 300.425 290.166 300.425 287.115C300.425 252.534 290.41 243.38 290.41 243.38Z" fill="black"/>
<path d="M320.453 212.868L306.433 227.107H305.432V166.082C308.436 166.082 310.439 166.082 310.439 169.133C310.439 203.714 320.453 212.868 320.453 212.868Z" fill="black"/>
<path d="M320.453 243.38L306.433 229.141H305.432V290.166C308.436 290.166 310.439 290.166 310.439 287.115C310.439 252.534 320.453 243.38 320.453 243.38Z" fill="black"/>
<path d="M290.41 212.868L304.43 227.107H305.432V166.082C302.427 166.082 300.425 166.082 300.425 169.133C300.425 203.714 290.41 212.868 290.41 212.868Z" fill="black"/>
</svg>
